<?xml version="1.0" standalone="no"?>
<!DOCTYPE svg PUBLIC "-//W3C//DTD SVG 20010904//EN"
 "http://www.w3.org/TR/2001/REC-SVG-20010904/DTD/svg10.dtd">
<svg version="1.0" xmlns="http://www.w3.org/2000/svg"
 width="343.000000pt" height="300.000000pt" viewBox="0 0 343.000000 300.000000"
 preserveAspectRatio="xMidYMid meet">
<metadata>
Created by potrace 1.16, written by Peter Selinger 2001-2019
</metadata>
<g transform="translate(0.000000,300.000000) scale(0.100000,-0.100000)"
fill="#000000" stroke="none">
<path d="M1683 2320 c-57 -35 -85 -89 -92 -183 l-6 -82 -59 -3 -59 -3 7 -97
c4 -53 11 -173 16 -267 19 -357 38 -567 50 -560 4 3 72 9 151 15 79 6 187 15
239 20 52 5 146 12 208 16 l112 7 0 41 c0 23 -5 82 -10 131 -5 50 -16 158 -24
240 -9 83 -18 177 -21 210 -3 33 -11 104 -17 158 l-11 97 -75 0 -74 0 6 33 c3
17 1 48 -3 67 -8 31 -9 27 -10 -32 l-1 -68 -38 0 -37 0 -1 78 c0 81 -9 108
-52 154 -31 34 -22 46 21 30 29 -10 30 -10 13 3 -32 24 -192 20 -233 -5z m73
-22 c-34 -48 -56 -83 -56 -93 1 -5 10 6 20 26 20 39 73 89 94 89 20 0 53 -28
74 -62 25 -42 35 -98 26 -153 l-6 -45 -104 0 c-92 0 -104 2 -105 18 0 13 -2
14 -6 2 -8 -21 -24 -30 -55 -30 -28 0 -28 0 -28 68 0 53 5 79 23 113 26 49 77
89 115 89 24 0 24 -1 8 -22z m84 -377 c5 -11 10 -82 10 -158 0 -76 4 -174 9
-218 5 -44 12 -130 16 -192 6 -108 6 -112 -15 -123 -12 -7 -68 -13 -123 -13
l-101 -2 -8 42 c-4 24 -14 152 -23 285 -9 134 -19 273 -22 310 -5 64 -5 68 18
77 13 5 70 10 126 10 91 1 103 -1 113 -18z"/>
<path d="M1416 2038 c-2 -7 -14 -188 -26 -403 -11 -214 -23 -399 -26 -411 -5
-18 5 -26 62 -53 36 -17 69 -30 71 -27 2 2 -3 89 -11 192 -8 104 -20 279 -26
389 -15 273 -20 325 -31 325 -5 0 -11 -6 -13 -12z"/>
<path d="M1010 968 c-50 -53 -150 -187 -150 -202 0 -28 21 -17 71 37 47 51 49
51 49 24 0 -19 7 -31 25 -39 21 -10 29 -7 68 25 l44 36 9 -37 c12 -48 47 -55
93 -17 41 35 40 49 -4 41 l-34 -7 2 67 c1 43 -2 68 -9 71 -7 2 -31 -16 -55
-42 -23 -25 -46 -45 -51 -45 -5 0 -7 23 -6 52 3 61 -16 74 -52 36z"/>
<path d="M1601 895 c-38 -57 -60 -102 -57 -111 9 -22 19 -16 66 45 43 55 59
56 60 5 0 -12 8 -32 18 -44 28 -35 60 -14 115 76 49 79 50 99 6 92 -16 -2 -31
-16 -44 -40 -11 -21 -23 -38 -27 -38 -4 0 -8 24 -10 53 -3 50 -4 52 -34 55
-29 3 -35 -2 -93 -93z"/>
<path d="M2560 970 c-43 -23 -115 -97 -124 -127 -10 -33 25 -63 73 -63 80 0
198 63 221 120 15 36 4 54 -43 69 -66 20 -92 21 -127 1z"/>
<path d="M427 953 c-28 -20 -49 -27 -78 -26 -27 1 -39 -2 -39 -11 0 -15 21
-26 51 -26 33 0 20 -24 -24 -45 -68 -32 -61 -83 9 -62 24 7 45 7 73 -1 57 -18
77 -15 100 14 29 37 26 46 -14 38 -39 -7 -85 1 -85 16 0 5 20 30 45 56 36 37
43 49 34 60 -16 20 -29 18 -72 -13z"/>
<path d="M2193 958 c-31 -22 -47 -65 -20 -55 34 13 57 18 57 13 0 -4 -13 -25
-30 -48 -34 -47 -36 -60 -14 -82 28 -29 141 -10 186 31 25 22 13 34 -21 22
-36 -13 -93 -8 -98 7 -2 6 8 26 22 43 22 25 34 31 65 31 36 0 70 20 70 41 0 5
-12 9 -27 9 -16 0 -57 3 -93 6 -57 5 -69 3 -97 -18z"/>
<path d="M2856 971 c-44 -5 -63 -12 -77 -30 -24 -29 -16 -42 21 -34 36 7 37 0
5 -52 -34 -55 -33 -75 5 -75 20 0 33 6 37 18 19 57 54 123 68 128 9 4 22 1 28
-5 9 -10 3 -20 -27 -46 -39 -32 -39 -33 -23 -58 18 -28 78 -77 94 -77 13 0 43
33 43 48 0 7 -11 12 -23 12 -13 0 -32 9 -43 21 -19 21 -19 21 19 51 41 34 45
47 20 76 -21 24 -67 31 -147 23z"/>
<path d="M633 948 c-55 -60 -78 -129 -51 -156 19 -19 67 -14 106 10 l35 21 17
-23 c22 -29 55 -22 105 21 48 43 48 69 -1 40 -19 -12 -37 -21 -40 -21 -13 0
-1 36 21 62 29 35 30 41 9 58 -13 11 -23 5 -72 -42 -55 -54 -90 -78 -111 -78
-18 0 -13 19 14 54 29 38 32 61 9 70 -21 8 -18 9 -41 -16z"/>
<path d="M1390 956 c-26 -9 -38 -21 -45 -44 -5 -18 -14 -32 -20 -32 -23 0 -57
-47 -50 -69 11 -36 73 -47 149 -27 63 17 107 48 87 60 -5 3 -20 2 -33 -3 -24
-9 -67 -14 -100 -12 -36 2 -17 20 37 36 30 8 55 18 55 21 0 2 -11 9 -25 14
-26 10 -34 29 -12 31 6 1 25 0 40 -1 30 -2 60 17 51 31 -8 13 -93 10 -134 -5z"/>
<path d="M1987 955 c-60 -17 -99 -42 -95 -62 4 -20 21 -30 76 -43 72 -18 51
-33 -38 -27 -64 4 -80 2 -80 -9 0 -28 47 -47 103 -41 64 7 117 22 141 40 30
22 12 54 -37 68 -23 7 -46 16 -52 21 -16 15 17 29 54 24 38 -6 71 8 71 29 0
19 -74 19 -143 0z"/>
<path d="M3187 960 c-38 -11 -57 -29 -57 -50 0 -10 -16 -27 -36 -39 -29 -17
-35 -26 -32 -48 4 -38 41 -55 100 -49 63 7 138 40 138 62 0 11 -5 14 -17 9
-53 -20 -143 -23 -143 -5 0 9 62 30 87 30 25 0 23 21 -3 30 -38 15 -18 33 38
34 32 1 44 5 46 19 3 14 -4 17 -45 16 -26 0 -61 -5 -76 -9z"/>
</g>
</svg>
